<?xml version="1.0" encoding="utf-8"?>
<!-- Generator: Adobe Illustrator 15.0.0, SVG Export Plug-In . SVG Version: 6.00 Build 0)  -->
<!DOCTYPE svg PUBLIC "-//W3C//DTD SVG 1.1//EN" "http://www.w3.org/Graphics/SVG/1.1/DTD/svg11.dtd">
<svg version="1.1" id="Layer_1" xmlns="http://www.w3.org/2000/svg" xmlns:xlink="http://www.w3.org/1999/xlink" x="0px" y="0px"
	 width="50px" height="50px" viewBox="0 0 50 50" enable-background="new 0 0 50 50" xml:space="preserve">
<path fill-rule="evenodd" clip-rule="evenodd" fill="#010101" d="M45.412,25.714c0-5.562-0.655-9.368-1.963-11.417
	c-1.558-2.52-4.11-4.43-7.653-5.731c-3.194-1.279-7.179-2.061-11.956-2.346c-0.258-0.054-0.486-0.081-0.684-0.081l-0.08,0.081v0.069
	c-0.045,0-0.068,0.019-0.068,0.058c-0.045,0-0.069,0.027-0.069,0.081c-0.091,0.046-0.159,0.092-0.205,0.139l-0.08,0.081
	c-0.662,0.385-1.818,0.997-3.468,1.837c-0.913,0.438-1.974,0.924-3.183,1.456c-4.585,2.057-7.532,3.752-8.84,5.085
	c-0.236,1.009-0.894,3.205-1.973,6.586C4.863,22.751,4.7,24.516,4.7,26.904c0,5.229,1.225,9.245,3.673,12.042
	c1.46,1.664,3.323,2.979,5.589,3.95c1.263,0.525,2.669,0.971,4.221,1.341c2.502,0.533,5.399,0.798,8.692,0.798
	c3.414,0,6.388-0.593,8.921-1.778c3.116-1.496,5.527-3.938,7.231-7.327C44.617,32.794,45.412,29.389,45.412,25.714z M45.708,40.841
	c-2.502,3.714-5.806,6.306-9.912,7.776c-2.678,0.956-5.651,1.434-8.921,1.434c-11.354,0-19.13-3.222-23.327-9.662
	C1.183,36.793,0,31.985,0,25.968c0-8.775,2.601-15.508,7.803-20.2c4.631-4.198,10.38-6.105,17.247-5.72
	c3.917,0.238,7.499,1.144,10.746,2.715c2.356,1.109,4.528,2.597,6.512,4.46c5.195,4.908,7.792,11.071,7.792,18.489
	C50.1,31.438,48.636,36.479,45.708,40.841z"/>
<path fill-rule="evenodd" clip-rule="evenodd" fill="#8CC649" d="M45.412,25.714c0,3.675-0.795,7.08-2.385,10.216
	c-1.704,3.389-4.115,5.831-7.231,7.327c-2.533,1.186-5.507,1.778-8.921,1.778c-3.293,0-6.19-0.265-8.692-0.798
	c-1.551-0.37-2.958-0.815-4.221-1.341c-2.266-0.971-4.129-2.286-5.589-3.95C5.924,36.149,4.7,32.134,4.7,26.904
	c0-2.389,0.164-4.153,0.491-5.293c1.08-3.382,1.737-5.578,1.973-6.586c1.308-1.333,4.255-3.028,8.84-5.085
	c1.209-0.532,2.271-1.017,3.183-1.456c1.65-0.84,2.806-1.453,3.468-1.837l0.08-0.081c0.046-0.046,0.114-0.092,0.205-0.139
	c0-0.054,0.023-0.081,0.069-0.081c0-0.039,0.023-0.058,0.068-0.058V6.219l0.08-0.081c0.198,0,0.426,0.027,0.684,0.081
	c4.777,0.285,8.761,1.067,11.956,2.346c3.543,1.302,6.096,3.212,7.653,5.731C44.757,16.346,45.412,20.152,45.412,25.714z"/>
<path fill-rule="evenodd" clip-rule="evenodd" fill="#010101" fill-opacity="0.251" d="M44.783,12.552
	c0.07,0.347,0.11,1.148,0.125,2.404c0,0.073,0,0.146,0,0.22c0.392,0.514,0.883,1.238,1.473,2.172
	c0.176,0.678,0.281,1.459,0.318,2.346c0.017,0.308,0.023,1.085,0.023,2.333c0,0.578,0.113,1.564,0.343,2.958
	c0.229,1.386,0.342,2.365,0.342,2.935c0,2.443-0.095,4.234-0.285,5.373c-0.105,0.625-0.51,1.46-1.209,2.508
	c-1.142,1.711-1.727,2.59-1.756,2.634c-1.369,2.343-3.815,4.446-7.336,6.311c-2.775,1.473-5.292,2.4-7.552,2.785h-6.387
	c-1.072-0.286-1.924-0.558-2.555-0.82c-1.13-0.472-1.757-1.026-1.883-1.663c-0.25,0.021-0.5,0.041-0.753,0.057l0.058,0.347
	c-0.038,0.063-0.077,0.163-0.114,0.302c-0.068,0.105-0.221,0.16-0.457,0.16c-0.501,0-0.935-0.208-1.3-0.624
	c-0.274-0.315-0.411-0.55-0.411-0.705c0-0.023,0.646-0.15,1.939-0.38c1.757-0.316,3.3-0.624,4.631-0.926
	c4.791-1.093,8.134-2.379,10.027-3.86c1.574-1.238,2.757-2.245,3.547-3.015c1.241-1.225,2.188-2.455,2.84-3.687
	c0.762-1.441,1.666-3.063,2.716-4.865c0.828-1.417,1.37-2.396,1.62-2.935c0.379-0.832,0.635-1.706,0.764-2.623
	c0.137-0.894,0.206-2.188,0.206-3.883c0-0.183-0.069-0.938-0.206-2.264c-0.044-0.06-0.082-0.114-0.114-0.162
	c-0.243-0.362-0.363-0.728-0.363-1.098c0-0.525,0.084-0.839,0.256-0.942c-0.021-0.241-0.029-0.397-0.029-0.468
	c0-0.423,0.035-0.685,0.103-0.786C43.594,12.39,44.054,12.344,44.783,12.552z"/>
<path fill-rule="evenodd" clip-rule="evenodd" fill="#FFFFFF" fill-opacity="0.251" d="M7.711,21.496
	c0-2.034,0.917-4.148,2.749-6.344c1.673-2.011,3.685-3.621,6.034-4.831c2.403-1.24,4.415-1.667,6.035-1.282
	c1.833,0.431,2.749,1.861,2.749,4.287c0,0.624-2.05,2.688-6.148,6.194c-4.145,3.536-6.658,5.304-7.54,5.304
	c-1.171,0-2.16-0.501-2.965-1.502C8.015,22.567,7.711,21.958,7.711,21.496z"/>
</svg>
