<?xml version="1.0" encoding="utf-8"?>
<!-- Generator: Adobe Illustrator 15.0.0, SVG Export Plug-In . SVG Version: 6.00 Build 0)  -->
<!DOCTYPE svg PUBLIC "-//W3C//DTD SVG 1.1//EN" "http://www.w3.org/Graphics/SVG/1.1/DTD/svg11.dtd">
<svg version="1.1" id="Layer_1" xmlns="http://www.w3.org/2000/svg" xmlns:xlink="http://www.w3.org/1999/xlink" x="0px" y="0px"
	 width="50px" height="50px" viewBox="0 0 50 50" enable-background="new 0 0 50 50" xml:space="preserve">
<path fill="#010101" d="M24.981,11.845c-2.144,1.101-6.578,3.863-13.302,8.286c-3.444,2.267-5.955,3.877-7.533,4.832
	c1.351,0.662,4.096,2.174,8.234,4.535c7.998,4.57,12.36,7.057,13.087,7.456c1.085,0.593,2.954,1.489,5.604,2.692
	c1.509,0.682,3.886,1.75,7.134,3.207c2.06,0.942,3.755,1.761,5.086,2.455c-0.474-1.166-1.144-3.026-2.008-5.586
	c-0.259-0.631-0.658-1.572-1.198-2.826c-0.447-1.133-0.794-2.211-1.04-3.235c-0.657-2.743-0.826-6.101-0.509-10.072
	c0.221-3.476,0.68-6.403,1.376-8.783c0.401-1.363,1.185-3.304,2.347-5.824c0.521-1.127,0.98-2.347,1.385-3.655
	c0.086-0.306,0.186-0.644,0.303-1.014c-0.313,0.103-0.639,0.207-0.975,0.315c-1.734,0.497-2.998,0.865-3.791,1.107
	c-1.379,0.414-2.326,0.781-2.847,1.098c-1.356,0.827-3.261,1.715-5.71,2.665C27.798,10.584,25.917,11.367,24.981,11.845z
	 M32.193,4.819c7.263-3.241,11.623-4.861,13.078-4.861c0.621,0,1.146,0.112,1.567,0.336c0.13,0.069,0.245,0.148,0.351,0.237
	c0.424,0.032,0.939,0.228,1.549,0.581c0.77,0.453,1.15,0.943,1.15,1.472c0,0.427-0.377,1.374-1.131,2.845
	c-1.188,2.317-2.02,4.017-2.492,5.098c-2.426,5.544-3.639,11.203-3.639,16.976c0,2.179,0.971,5.954,2.906,11.332
	c1.93,4.983,2.893,7.571,2.893,7.763c0,0.186-0.016,0.355-0.048,0.516c0.032,0.113,0.048,0.229,0.048,0.344
	c0,0.089-0.002,0.172-0.009,0.248c0.007,0.076,0.009,0.152,0.009,0.229c0,0.91-0.488,1.512-1.471,1.806
	c-0.299,0.089-0.627,0.14-0.982,0.151h-0.39c-0.97,0-1.688-0.203-2.153-0.611c-0.033-0.024-0.057-0.051-0.07-0.074
	c-0.998-0.434-2.455-1.148-4.364-2.148c-3.481-1.884-5.468-2.942-5.954-3.179c-0.792-0.389-1.768-0.797-2.924-1.224
	c-1.325-0.478-2.322-0.842-2.991-1.098c-2.45-0.916-4.386-1.908-5.809-2.979c-4.794-2.418-9.102-4.782-12.922-7.094
	c-4.223-2.553-6.633-4.397-7.231-5.537c-2.352-0.389-1.006-2.418,4.035-6.091c4.054-2.959,9.384-6.265,15.992-9.92
	C21.431,9.814,25.099,8.108,32.193,4.819z"/>
<path fill="#A7A9AC" d="M24.981,11.845c0.936-0.478,2.816-1.261,5.643-2.348c2.449-0.95,4.353-1.838,5.71-2.665
	c0.521-0.316,1.468-0.684,2.846-1.098c0.793-0.242,2.059-0.61,3.793-1.107c0.336-0.108,0.661-0.213,0.973-0.315
	c-0.116,0.37-0.217,0.708-0.303,1.014c-0.401,1.309-0.863,2.528-1.384,3.655c-1.161,2.521-1.944,4.461-2.347,5.824
	c-0.696,2.38-1.155,5.308-1.376,8.783c-0.317,3.973-0.147,7.329,0.509,10.072c0.246,1.023,0.594,2.104,1.04,3.236
	c0.54,1.254,0.938,2.194,1.198,2.826c0.865,2.559,1.533,4.42,2.008,5.584c-1.331-0.693-3.025-1.512-5.086-2.453
	c-3.248-1.457-5.625-2.526-7.133-3.207c-2.65-1.205-4.52-2.102-5.604-2.693c-0.728-0.4-5.09-2.887-13.087-7.456
	c-4.139-2.36-6.883-3.873-8.234-4.535c1.579-0.954,4.089-2.565,7.533-4.832C18.404,15.708,22.837,12.945,24.981,11.845z"/>
<path fill="#FFFFFF" fill-opacity="0.251" d="M19.125,32.314c-1.696-1.006-3.102-1.937-4.22-2.789
	c-3.339-2.559-3.32-3.838,0.059-3.838c0.189,0,1.657,0.768,4.405,2.302c3.215,1.788,5.525,2.993,6.928,3.618
	c0.611,0.268,2.618,1.009,6.021,2.224c3.101,1.254,4.648,2.296,4.648,3.122c0,0.904-0.404,1.488-1.218,1.757
	c-0.299,0.103-0.765,0.153-1.396,0.153c-0.674,0-2.81-0.771-6.401-2.312c-1.772-0.758-3.754-1.643-5.944-2.653
	C21.405,33.618,20.443,33.091,19.125,32.314z"/>
<path fill="#010101" fill-opacity="0.251" d="M31.607,5.592c0.818-0.415,2.011-1.032,3.576-1.853
	c2.787-1.406,5.143-2.109,7.065-2.109c0.862,0,1.476,0.111,1.831,0.334c0.715,0.445,1.072,1.384,1.072,2.816
	c0,0.904-0.293,1.778-0.877,2.625c-0.584,0.853-0.877,1.729-0.877,2.625c0,1.337-2.498,2.934-7.494,4.793
	c-3.041,1.139-6.94,2.343-11.704,3.608c-0.987,0.262-2.478,0.822-4.473,1.681c-0.24,0.102-2.118,0.936-5.632,2.502
	c-4.892,2.176-7.981,3.264-9.268,3.264c-0.799,0-1.407-0.19-1.822-0.572c-0.396-0.363-0.54-0.812-0.429-1.346
	c0.117-0.554,0.487-1.073,1.111-1.558c0.702-0.533,1.627-0.935,2.778-1.202c0.896-0.317,2.088-0.82,3.576-1.507
	c0.832-0.39,2.026-0.952,3.585-1.691c-0.097-0.196-0.188-0.42-0.272-0.669c-0.11-0.329-0.166-0.6-0.166-0.811
	c0-1.526,1.926-3.342,5.779-5.44c2.768-1.51,5.682-2.782,8.741-3.82C28.859,6.866,30.158,6.31,31.607,5.592z"/>
</svg>
