<?xml version="1.0" encoding="utf-8"?>
<!-- Generator: Adobe Illustrator 15.0.0, SVG Export Plug-In . SVG Version: 6.00 Build 0)  -->
<!DOCTYPE svg PUBLIC "-//W3C//DTD SVG 1.1//EN" "http://www.w3.org/Graphics/SVG/1.1/DTD/svg11.dtd">
<svg version="1.1" id="Layer_1" xmlns="http://www.w3.org/2000/svg" xmlns:xlink="http://www.w3.org/1999/xlink" x="0px" y="0px"
	 width="50px" height="50px" viewBox="0 0 50 50" enable-background="new 0 0 50 50" xml:space="preserve">
<path fill="#010101" d="M11.886,24.909c1.101,2.144,3.863,6.577,8.286,13.302c2.267,3.443,3.877,5.954,4.832,7.533
	c0.662-1.352,2.176-4.096,4.535-8.234c4.57-7.998,7.057-12.36,7.456-13.088c0.593-1.085,1.489-2.954,2.692-5.604
	c0.682-1.508,1.75-3.885,3.207-7.133c0.942-2.06,1.76-3.755,2.455-5.086c-1.166,0.474-3.026,1.143-5.586,2.008
	c-0.631,0.259-1.572,0.658-2.826,1.198c-1.133,0.447-2.211,0.794-3.235,1.04c-2.743,0.657-6.101,0.826-10.073,0.509
	c-3.476-0.221-6.403-0.68-8.783-1.376c-1.363-0.401-3.304-1.185-5.824-2.347C7.895,7.111,6.675,6.65,5.367,6.248
	C5.061,6.162,4.723,6.062,4.353,5.945C4.456,6.256,4.56,6.583,4.668,6.918c0.497,1.734,0.865,2.999,1.107,3.792
	c0.414,1.378,0.781,2.325,1.098,2.846c0.827,1.357,1.715,3.261,2.665,5.71C10.625,22.092,11.409,23.973,11.886,24.909z
	 M4.861,17.696C1.62,10.434,0,6.074,0,4.619C0,3.997,0.112,3.473,0.335,3.05c0.07-0.13,0.149-0.245,0.238-0.35
	C0.605,2.277,0.8,1.76,1.154,1.151C1.607,0.382,2.097,0,2.625,0C3.052,0,4,0.377,5.47,1.131c2.317,1.188,4.017,2.02,5.098,2.493
	c5.544,2.425,11.203,3.638,16.976,3.638c2.179,0,5.954-0.97,11.332-2.906c4.983-1.93,7.571-2.893,7.763-2.893
	c0.186,0,0.355,0.016,0.516,0.048c0.113-0.032,0.229-0.048,0.344-0.048c0.089,0,0.172,0.002,0.248,0.009
	c0.076-0.007,0.152-0.009,0.229-0.009c0.91,0,1.512,0.489,1.805,1.471c0.09,0.299,0.141,0.627,0.152,0.983v0.389
	c0,0.97-0.203,1.688-0.611,2.154c-0.024,0.033-0.051,0.056-0.074,0.069c-0.434,0.999-1.148,2.455-2.148,4.365
	c-1.884,3.482-2.943,5.468-3.179,5.954c-0.39,0.792-0.797,1.767-1.224,2.924c-0.478,1.325-0.842,2.322-1.098,2.991
	c-0.916,2.45-1.908,4.385-2.979,5.809c-2.418,4.794-4.782,9.102-7.094,12.922c-2.553,4.223-4.397,6.633-5.537,7.23
	c-0.389,2.353-2.418,1.006-6.091-4.035c-2.959-4.054-6.265-9.383-9.92-15.99C9.856,28.459,8.15,24.792,4.861,17.696z"/>
<path fill="#A7A9AC" d="M11.886,24.909c-0.478-0.936-1.261-2.816-2.348-5.643c-0.95-2.449-1.838-4.353-2.665-5.71
	c-0.316-0.521-0.684-1.468-1.098-2.846c-0.242-0.793-0.61-2.058-1.107-3.792C4.56,6.583,4.456,6.256,4.353,5.945
	c0.37,0.117,0.708,0.217,1.014,0.303C6.675,6.65,7.895,7.111,9.022,7.631c2.521,1.162,4.461,1.945,5.824,2.347
	c2.38,0.696,5.308,1.155,8.783,1.376c3.973,0.317,7.33,0.148,10.073-0.509c1.024-0.246,2.104-0.593,3.235-1.04
	c1.254-0.54,2.195-0.939,2.826-1.198c2.56-0.865,4.42-1.534,5.586-2.008c-0.695,1.331-1.513,3.026-2.455,5.086
	c-1.457,3.248-2.525,5.625-3.207,7.133c-1.203,2.65-2.101,4.519-2.692,5.604c-0.399,0.728-2.886,5.09-7.456,13.088
	c-2.359,4.139-3.873,6.883-4.535,8.234c-0.954-1.579-2.565-4.09-4.832-7.533C15.75,31.486,12.987,27.053,11.886,24.909z"/>
<path fill="#FFFFFF" fill-opacity="0.251" d="M32.355,30.766c-1.006,1.696-1.936,3.104-2.787,4.221c-2.56,3.339-3.84,3.32-3.84-0.06
	c0-0.188,0.769-1.655,2.303-4.405c1.787-3.215,2.994-5.524,3.617-6.928c0.269-0.611,1.01-2.618,2.225-6.021
	c1.254-3.101,2.296-4.649,3.122-4.649c0.903,0,1.489,0.405,1.757,1.218c0.102,0.299,0.152,0.765,0.152,1.395
	c0,0.675-0.771,2.81-2.311,6.402c-0.758,1.773-1.643,3.754-2.654,5.945C33.66,28.484,33.133,29.447,32.355,30.766z"/>
<path fill="#010101" fill-opacity="0.251" d="M5.633,18.282c-0.415-0.818-1.032-2.01-1.853-3.576
	C2.375,11.918,1.671,9.564,1.671,7.64c0-0.863,0.111-1.476,0.334-1.831C2.45,5.094,3.389,4.737,4.821,4.737
	c0.904,0,1.778,0.292,2.625,0.876c0.853,0.585,1.729,0.878,2.625,0.878c1.337,0,2.934,2.498,4.793,7.494
	c1.139,3.04,2.343,6.94,3.608,11.705c0.262,0.986,0.822,2.478,1.681,4.473c0.102,0.238,0.936,2.117,2.502,5.632
	c2.176,4.894,3.264,7.981,3.264,9.269c0,0.799-0.19,1.406-0.572,1.821c-0.363,0.396-0.812,0.54-1.346,0.429
	c-0.554-0.115-1.073-0.486-1.558-1.109c-0.533-0.702-0.935-1.628-1.202-2.778c-0.317-0.896-0.82-2.088-1.507-3.575
	c-0.39-0.832-0.952-2.026-1.691-3.586c-0.196,0.098-0.42,0.188-0.669,0.272c-0.329,0.108-0.6,0.165-0.811,0.165
	c-1.526,0-3.342-1.926-5.44-5.778c-1.51-2.769-2.782-5.682-3.82-8.742C6.908,21.03,6.351,19.732,5.633,18.282z"/>
</svg>
