<?xml version="1.0" encoding="utf-8"?>
<!-- Generator: Adobe Illustrator 15.0.0, SVG Export Plug-In . SVG Version: 6.00 Build 0)  -->
<!DOCTYPE svg PUBLIC "-//W3C//DTD SVG 1.1//EN" "http://www.w3.org/Graphics/SVG/1.1/DTD/svg11.dtd">
<svg version="1.1" id="Layer_1" xmlns="http://www.w3.org/2000/svg" xmlns:xlink="http://www.w3.org/1999/xlink" x="0px" y="0px"
	 width="50px" height="50px" viewBox="0 0 50 50" enable-background="new 0 0 50 50" xml:space="preserve">
<path fill="#010101" d="M38.045,24.939c-1.102-2.144-3.863-6.578-8.286-13.302c-2.267-3.444-3.877-5.955-4.832-7.533
	c-0.662,1.351-2.174,4.096-4.534,8.234c-4.57,7.998-7.056,12.36-7.457,13.087c-0.593,1.085-1.489,2.954-2.693,5.604
	c-0.681,1.508-1.75,3.885-3.208,7.133c-0.942,2.061-1.76,3.755-2.454,5.086c1.165-0.475,3.026-1.143,5.585-2.008
	c0.63-0.26,1.572-0.658,2.826-1.198c1.133-0.446,2.212-0.794,3.237-1.04c2.743-0.656,6.101-0.826,10.072-0.509
	c3.477,0.221,6.403,0.68,8.783,1.376c1.363,0.4,3.305,1.186,5.824,2.347c1.127,0.521,2.347,0.981,3.654,1.384
	c0.307,0.086,0.645,0.187,1.015,0.303c-0.103-0.312-0.207-0.637-0.315-0.973c-0.496-1.734-0.865-3-1.107-3.793
	c-0.413-1.378-0.78-2.324-1.098-2.846c-0.826-1.357-1.715-3.262-2.664-5.71C39.307,27.756,38.521,25.875,38.045,24.939z
	 M45.07,32.152c3.24,7.262,4.861,11.621,4.861,13.076c0,0.623-0.113,1.146-0.336,1.568c-0.07,0.13-0.148,0.245-0.238,0.352
	c-0.031,0.422-0.228,0.938-0.58,1.549c-0.453,0.769-0.943,1.15-1.473,1.15c-0.427,0-1.373-0.377-2.845-1.132
	c-2.317-1.188-4.017-2.021-5.099-2.493c-5.543-2.425-11.202-3.638-16.975-3.638c-2.177,0-5.954,0.97-11.332,2.906
	c-4.984,1.93-7.571,2.893-7.762,2.893c-0.185,0-0.356-0.016-0.516-0.048c-0.114,0.032-0.229,0.048-0.344,0.048
	c-0.089,0-0.172-0.002-0.248-0.009c-0.076,0.007-0.153,0.009-0.229,0.009c-0.911,0-1.512-0.489-1.805-1.471
	C0.063,46.615,0.013,46.287,0,45.932v-0.39c0-0.97,0.204-1.688,0.611-2.153c0.025-0.033,0.051-0.057,0.076-0.07
	c0.433-0.998,1.149-2.454,2.149-4.364C4.719,35.473,5.779,33.486,6.014,33c0.388-0.792,0.796-1.768,1.222-2.924
	c0.478-1.325,0.843-2.322,1.098-2.991c0.917-2.45,1.909-4.386,2.979-5.809c2.418-4.794,4.783-9.102,7.093-12.922
	c2.553-4.223,4.398-6.633,5.538-7.231c0.388-2.352,2.417-1.006,6.091,4.035c2.959,4.054,6.265,9.384,9.92,15.992
	C40.075,21.389,41.781,25.057,45.07,32.152z"/>
<path fill="#A7A9AC" d="M38.045,24.939c0.479,0.936,1.262,2.816,2.348,5.643c0.95,2.449,1.838,4.354,2.666,5.71
	c0.315,0.521,0.684,1.468,1.098,2.847c0.242,0.793,0.609,2.057,1.107,3.791c0.107,0.336,0.213,0.662,0.314,0.975
	c-0.37-0.117-0.708-0.217-1.014-0.303c-1.31-0.402-2.528-0.863-3.655-1.385c-2.521-1.162-4.461-1.945-5.824-2.347
	c-2.38-0.696-5.308-1.155-8.783-1.376c-3.971-0.317-7.329-0.148-10.072,0.509c-1.024,0.246-2.104,0.593-3.237,1.04
	c-1.254,0.54-2.195,0.939-2.826,1.198c-2.559,0.864-4.42,1.534-5.585,2.008c0.694-1.331,1.512-3.026,2.454-5.086
	c1.458-3.248,2.527-5.625,3.208-7.134c1.204-2.649,2.1-4.519,2.693-5.604c0.401-0.728,2.886-5.09,7.457-13.087
	c2.36-4.139,3.872-6.883,4.534-8.234c0.954,1.579,2.565,4.089,4.832,7.533C34.182,18.362,36.943,22.795,38.045,24.939z"/>
<path fill="#FFFFFF" fill-opacity="0.251" d="M17.576,19.083c1.006-1.696,1.935-3.102,2.788-4.22
	c2.559-3.339,3.838-3.32,3.838,0.059c0,0.189-0.767,1.657-2.301,4.405c-1.788,3.215-2.995,5.525-3.618,6.928
	c-0.268,0.611-1.009,2.618-2.224,6.021c-1.254,3.102-2.295,4.649-3.122,4.649c-0.904,0-1.489-0.405-1.757-1.218
	c-0.102-0.299-0.153-0.766-0.153-1.395c0-0.676,0.771-2.811,2.311-6.402c0.758-1.773,1.642-3.754,2.654-5.944
	C16.271,21.363,16.799,20.401,17.576,19.083z"/>
<path fill="#010101" fill-opacity="0.251" d="M44.298,31.566c0.415,0.817,1.032,2.01,1.853,3.576
	c1.406,2.787,2.109,5.142,2.109,7.064c0,0.863-0.111,1.477-0.334,1.831c-0.445,0.715-1.384,1.071-2.816,1.071
	c-0.903,0-1.777-0.291-2.625-0.875c-0.853-0.586-1.729-0.879-2.625-0.879c-1.336,0-2.934-2.498-4.793-7.494
	c-1.139-3.039-2.342-6.939-3.607-11.703c-0.262-0.987-0.822-2.478-1.682-4.473c-0.102-0.24-0.936-2.118-2.502-5.632
	c-2.175-4.892-3.263-7.981-3.263-9.268c0-0.799,0.19-1.407,0.572-1.822c0.363-0.396,0.812-0.54,1.346-0.429
	c0.555,0.117,1.073,0.487,1.559,1.111c0.533,0.702,0.935,1.627,1.201,2.778C29.007,7.32,29.51,8.512,30.195,10
	c0.391,0.832,0.953,2.026,1.691,3.585c0.196-0.097,0.42-0.188,0.67-0.272c0.328-0.11,0.6-0.166,0.811-0.166
	c1.525,0,3.342,1.926,5.439,5.779c1.51,2.768,2.782,5.682,3.82,8.741C43.023,28.818,43.58,30.116,44.298,31.566z"/>
</svg>
