<?xml version="1.0" encoding="utf-8"?>
<!-- Generator: Adobe Illustrator 15.0.0, SVG Export Plug-In . SVG Version: 6.00 Build 0)  -->
<!DOCTYPE svg PUBLIC "-//W3C//DTD SVG 1.1//EN" "http://www.w3.org/Graphics/SVG/1.1/DTD/svg11.dtd">
<svg version="1.1" id="Layer_1" xmlns="http://www.w3.org/2000/svg" xmlns:xlink="http://www.w3.org/1999/xlink" x="0px" y="0px"
	 width="50px" height="50px" viewBox="0 0 50 50" enable-background="new 0 0 50 50" xml:space="preserve">
<path fill="#010101" d="M24.951,38.004c2.145-1.102,6.578-3.863,13.302-8.286c3.442-2.267,5.954-3.878,7.533-4.832
	c-1.353-0.662-4.097-2.175-8.234-4.535c-7.997-4.57-12.36-7.055-13.088-7.456c-1.085-0.593-2.954-1.489-5.604-2.693
	c-1.508-0.681-3.885-1.75-7.133-3.207c-2.06-0.942-3.755-1.76-5.086-2.454c0.474,1.165,1.143,3.026,2.008,5.585
	c0.259,0.631,0.658,1.572,1.198,2.826c0.447,1.133,0.794,2.212,1.04,3.236c0.657,2.743,0.826,6.101,0.509,10.074
	c-0.221,3.475-0.68,6.402-1.376,8.782c-0.401,1.363-1.185,3.304-2.347,5.824c-0.521,1.127-0.981,2.347-1.384,3.655
	c-0.086,0.306-0.186,0.644-0.303,1.014c0.312-0.104,0.638-0.207,0.974-0.314c1.734-0.498,2.999-0.865,3.792-1.107
	c1.378-0.414,2.325-0.781,2.846-1.098c1.357-0.828,3.261-1.716,5.71-2.666C22.134,39.266,24.015,38.48,24.951,38.004z
	 M17.738,45.029c-7.262,3.24-11.622,4.861-13.077,4.861c-0.622,0-1.146-0.113-1.568-0.336c-0.13-0.07-0.245-0.148-0.351-0.238
	c-0.423-0.031-0.939-0.228-1.549-0.58c-0.769-0.453-1.15-0.943-1.15-1.473c0-0.427,0.377-1.373,1.131-2.845
	c1.188-2.317,2.02-4.017,2.493-5.099c2.425-5.543,3.638-11.202,3.638-16.975c0-2.178-0.97-5.954-2.906-11.332
	C2.468,6.03,1.505,3.443,1.505,3.252c0-0.186,0.016-0.356,0.048-0.516C1.521,2.623,1.505,2.507,1.505,2.393
	c0-0.089,0.002-0.172,0.009-0.248C1.507,2.069,1.505,1.992,1.505,1.916c0-0.91,0.489-1.512,1.471-1.805
	c0.299-0.089,0.627-0.14,0.983-0.152h0.389c0.97,0,1.688,0.203,2.154,0.611c0.033,0.025,0.056,0.051,0.069,0.075
	c0.999,0.434,2.455,1.149,4.365,2.149c3.482,1.883,5.468,2.942,5.954,3.178c0.792,0.389,1.767,0.797,2.924,1.223
	c1.325,0.478,2.322,0.843,2.991,1.098c2.45,0.917,4.386,1.909,5.808,2.979c4.795,2.417,9.103,4.782,12.923,7.092
	c4.223,2.553,6.633,4.398,7.231,5.538c2.352,0.388,1.006,2.418-4.035,6.092c-4.055,2.959-9.385,6.265-15.991,9.92
	C28.501,40.034,24.833,41.74,17.738,45.029z"/>
<path fill="#A7A9AC" d="M24.951,38.004c-0.936,0.479-2.816,1.262-5.643,2.348c-2.449,0.95-4.353,1.838-5.71,2.666
	c-0.521,0.315-1.468,0.684-2.846,1.098c-0.793,0.242-2.058,0.609-3.792,1.107c-0.336,0.107-0.662,0.213-0.974,0.314
	c0.117-0.37,0.217-0.708,0.303-1.014c0.402-1.31,0.863-2.528,1.384-3.655c1.162-2.521,1.945-4.461,2.347-5.824
	c0.696-2.38,1.155-5.308,1.376-8.783c0.317-3.972,0.148-7.33-0.509-10.073c-0.246-1.024-0.593-2.104-1.04-3.236
	c-0.54-1.254-0.939-2.195-1.198-2.826c-0.865-2.559-1.534-4.42-2.008-5.585c1.331,0.694,3.026,1.512,5.086,2.454
	c3.248,1.457,5.625,2.526,7.133,3.207c2.65,1.204,4.519,2.101,5.604,2.693c0.728,0.4,5.091,2.885,13.088,7.456
	c4.14,2.36,6.884,3.873,8.234,4.535c-1.579,0.954-4.091,2.565-7.533,4.832C31.527,34.141,27.096,36.902,24.951,38.004z"/>
<path fill="#FFFFFF" fill-opacity="0.251" d="M30.809,17.533c1.695,1.006,3.103,1.936,4.219,2.788
	c3.34,2.559,3.32,3.839-0.059,3.839c-0.188,0-1.656-0.768-4.404-2.302c-3.215-1.788-5.525-2.994-6.928-3.618
	c-0.611-0.268-2.618-1.009-6.021-2.224c-3.101-1.254-4.649-2.296-4.649-3.122c0-0.904,0.405-1.489,1.218-1.757
	c0.299-0.102,0.765-0.153,1.395-0.153c0.675,0,2.81,0.771,6.402,2.311c1.773,0.758,3.753,1.643,5.945,2.654
	C28.527,16.229,29.488,16.757,30.809,17.533z"/>
<path fill="#010101" fill-opacity="0.251" d="M18.324,44.257c-0.818,0.415-2.01,1.032-3.576,1.853
	c-2.787,1.406-5.142,2.109-7.065,2.109c-0.863,0-1.476-0.111-1.831-0.334c-0.715-0.445-1.072-1.384-1.072-2.816
	c0-0.903,0.292-1.777,0.876-2.625c0.585-0.853,0.878-1.729,0.878-2.625c0-1.336,2.498-2.934,7.494-4.793
	c3.04-1.139,6.94-2.342,11.705-3.607c0.986-0.262,2.478-0.822,4.473-1.682c0.238-0.102,2.117-0.936,5.632-2.502
	c4.894-2.176,7.981-3.264,9.269-3.264c0.799,0,1.406,0.19,1.821,0.572c0.396,0.363,0.54,0.812,0.429,1.347
	c-0.115,0.553-0.486,1.073-1.109,1.557c-0.702,0.533-1.628,0.936-2.778,1.203c-0.896,0.316-2.088,0.819-3.575,1.506
	c-0.832,0.391-2.026,0.953-3.586,1.691c0.098,0.196,0.188,0.42,0.272,0.67c0.108,0.328,0.165,0.6,0.165,0.811
	c0,1.525-1.926,3.342-5.778,5.439c-2.768,1.51-5.682,2.782-8.742,3.82C21.072,42.982,19.774,43.539,18.324,44.257z"/>
</svg>
