<?xml version="1.0" encoding="utf-8"?>
<!-- Generator: Adobe Illustrator 15.0.0, SVG Export Plug-In . SVG Version: 6.00 Build 0)  -->
<!DOCTYPE svg PUBLIC "-//W3C//DTD SVG 1.1//EN" "http://www.w3.org/Graphics/SVG/1.1/DTD/svg11.dtd">
<svg version="1.1" id="Layer_1" xmlns="http://www.w3.org/2000/svg" xmlns:xlink="http://www.w3.org/1999/xlink" x="0px" y="0px"
	 width="200px" height="256.5px" viewBox="0 0 200 256.5" enable-background="new 0 0 200 256.5" xml:space="preserve">
<path fill="#020202" d="M96.339,144.789c0-10.986-1.294-18.506-3.877-22.553c-3.079-4.977-8.119-8.75-15.118-11.318
	c-6.31-2.527-14.18-4.072-23.617-4.635c-0.509-0.107-0.959-0.162-1.351-0.162l-0.157,0.162v0.136c-0.09,0-0.135,0.038-0.135,0.116
	c-0.089,0-0.136,0.051-0.136,0.158c-0.18,0.092-0.314,0.181-0.405,0.273l-0.158,0.162c-1.307,0.76-3.591,1.967-6.85,3.627
	c-1.804,0.865-3.899,1.826-6.288,2.877c-9.057,4.063-14.877,7.412-17.461,10.043c-0.467,1.994-1.766,6.331-3.897,13.01
	c-0.646,2.251-0.968,5.736-0.968,10.455c0,10.328,2.419,18.26,7.255,23.785c2.884,3.287,6.563,5.885,11.04,7.805
	c2.496,1.036,5.272,1.917,8.338,2.646c4.942,1.053,10.665,1.578,17.169,1.578c6.744,0,12.62-1.173,17.622-3.513
	c6.155-2.956,10.918-7.78,14.285-14.474C94.77,158.774,96.339,152.048,96.339,144.789z M96.924,174.67
	c-4.942,7.336-11.468,12.455-19.58,15.36c-5.29,1.889-11.163,2.832-17.622,2.832c-22.428,0-37.788-6.364-46.079-19.086
	c-4.671-7.103-7.008-16.601-7.008-28.485c0-17.332,5.138-30.633,15.414-39.902c9.147-8.291,20.503-12.058,34.067-11.298
	c7.737,0.471,14.813,2.259,21.227,5.365c4.655,2.189,8.945,5.127,12.865,8.808c10.261,9.695,15.39,21.87,15.39,36.522
	C105.6,156.095,102.709,166.053,96.924,174.67z"/>
<path fill="#499FD8" d="M96.339,144.789c0,7.259-1.569,13.985-4.71,20.18c-3.366,6.693-8.129,11.518-14.285,14.474
	c-5.002,2.344-10.878,3.513-17.622,3.513c-6.505,0-12.227-0.525-17.169-1.578c-3.064-0.729-5.843-1.608-8.338-2.646
	c-4.476-1.92-8.156-4.518-11.04-7.805c-4.838-5.525-7.255-13.455-7.255-23.785c0-4.719,0.324-8.204,0.97-10.455
	c2.133-6.683,3.432-11.02,3.897-13.01c2.584-2.635,8.405-5.982,17.461-10.047c2.388-1.049,4.486-2.008,6.288-2.873
	c3.259-1.66,5.543-2.871,6.85-3.631l0.158-0.158c0.092-0.093,0.226-0.182,0.405-0.275c0-0.107,0.045-0.16,0.136-0.16
	c0-0.078,0.046-0.114,0.135-0.114v-0.138l0.158-0.158c0.391,0,0.841,0.053,1.35,0.158c9.437,0.564,17.305,2.109,23.617,4.635
	c6.999,2.572,12.041,6.346,15.118,11.32C95.045,126.283,96.339,133.803,96.339,144.789z"/>
<path fill="#020202" fill-opacity="0.251" d="M95.097,118.789c0.14,0.686,0.217,2.27,0.247,4.75c0,0.145,0,0.287,0,0.434
	c0.773,1.016,1.744,2.446,2.909,4.291c0.348,1.338,0.556,2.881,0.629,4.633c0.033,0.609,0.046,2.146,0.046,4.61
	c0,1.143,0.223,3.089,0.676,5.841c0.453,2.739,0.677,4.673,0.677,5.799c0,4.826-0.188,8.364-0.563,10.613
	c-0.206,1.235-1.009,2.885-2.388,4.954c-2.255,3.38-3.413,5.116-3.469,5.205c-2.704,4.625-7.537,8.78-14.493,12.465
	c-5.48,2.909-10.451,4.741-14.915,5.502H51.835c-2.117-0.565-3.8-1.104-5.046-1.621c-2.233-0.932-3.472-2.025-3.72-3.285
	c-0.494,0.041-0.988,0.081-1.487,0.114l0.115,0.685c-0.075,0.126-0.152,0.322-0.226,0.597c-0.134,0.208-0.436,0.316-0.902,0.316
	c-0.991,0-1.847-0.411-2.568-1.233c-0.542-0.623-0.813-1.086-0.813-1.393c0-0.044,1.276-0.295,3.831-0.75
	c3.471-0.625,6.519-1.233,9.147-1.829c9.464-2.16,16.067-4.699,19.807-7.625c3.11-2.444,5.444-4.436,7.006-5.955
	c2.45-2.419,4.321-4.85,5.61-7.284c1.504-2.848,3.291-6.05,5.364-9.61c1.636-2.797,2.707-4.732,3.201-5.797
	c0.748-1.644,1.254-3.37,1.508-5.182c0.271-1.765,0.407-4.322,0.407-7.67c0-0.36-0.137-1.854-0.407-4.473
	c-0.086-0.118-0.161-0.225-0.224-0.32c-0.481-0.714-0.717-1.438-0.717-2.168c0-1.038,0.165-1.657,0.505-1.859
	c-0.042-0.477-0.058-0.785-0.058-0.927c0-0.833,0.069-1.353,0.204-1.551C92.748,118.471,93.659,118.379,95.097,118.789z"/>
<path fill="#FFFFFF" fill-opacity="0.251" d="M21.868,136.458c0-4.019,1.812-8.194,5.43-12.531
	c3.305-3.974,7.279-7.153,11.919-9.545c4.747-2.448,8.721-3.291,11.92-2.53c3.621,0.852,5.43,3.676,5.43,8.468
	c0,1.232-4.049,5.309-12.144,12.233c-8.188,6.987-13.151,10.479-14.894,10.479c-2.313,0-4.266-0.989-5.856-2.967
	C22.469,138.572,21.868,137.37,21.868,136.458z"/>
<path fill="#020202" d="M79.486,56.514c0-9.735-1.147-16.396-3.436-19.983c-2.729-4.411-7.195-7.753-13.396-10.031
	c-5.591-2.238-12.565-3.607-20.927-4.107c-0.451-0.094-0.85-0.141-1.198-0.141l-0.139,0.141v0.122c-0.079,0-0.119,0.034-0.119,0.102
	c-0.079,0-0.121,0.047-0.121,0.141c-0.159,0.082-0.278,0.162-0.359,0.244l-0.14,0.142c-1.158,0.674-3.182,1.745-6.07,3.215
	c-1.599,0.767-3.455,1.618-5.572,2.549c-8.025,3.601-13.183,6.567-15.472,8.9c-0.414,1.766-1.565,5.61-3.454,11.528
	c-0.572,1.994-0.857,5.083-0.857,9.263c0,9.151,2.143,16.18,6.429,21.076c2.556,2.913,5.816,5.215,9.782,6.917
	c2.211,0.917,4.671,1.698,7.389,2.346c4.379,0.933,9.45,1.398,15.213,1.398c5.976,0,11.182-1.04,15.615-3.114
	c5.454-2.618,9.674-6.893,12.658-12.824C78.095,68.907,79.486,62.946,79.486,56.514z M80.004,82.991
	c-4.379,6.501-10.162,11.038-17.349,13.609c-4.687,1.675-9.892,2.511-15.615,2.511c-19.873,0-33.483-5.64-40.831-16.912
	C2.071,75.906,0,67.49,0,56.958C0,41.6,4.553,29.815,13.658,21.603c8.105-7.349,18.168-10.686,30.187-10.013
	c6.856,0.417,13.126,2.003,18.81,4.753c4.125,1.941,7.926,4.545,11.399,7.806c9.092,8.59,13.637,19.378,13.637,32.361
	C87.691,66.532,85.13,75.356,80.004,82.991z"/>
<path fill="#8DC64B" d="M79.486,56.514c0,6.432-1.392,12.393-4.174,17.881c-2.983,5.931-7.204,10.206-12.658,12.824
	c-4.433,2.077-9.639,3.114-15.615,3.114c-5.764,0-10.834-0.465-15.213-1.398c-2.715-0.648-5.178-1.426-7.389-2.346
	c-3.966-1.701-7.227-4.004-9.782-6.917c-4.287-4.896-6.429-11.922-6.429-21.076c0-4.182,0.286-7.27,0.859-9.265
	c1.89-5.919,3.041-9.763,3.454-11.528c2.29-2.333,7.447-5.3,15.473-8.9c2.116-0.931,3.975-1.78,5.571-2.549
	c2.888-1.469,4.912-2.542,6.07-3.215l0.14-0.142c0.082-0.081,0.2-0.161,0.359-0.244c0-0.094,0.04-0.141,0.121-0.141
	c0-0.069,0.041-0.102,0.119-0.102v-0.121l0.14-0.141c0.346,0,0.745,0.047,1.197,0.141c8.362,0.499,15.334,1.868,20.927,4.106
	c6.201,2.279,10.669,5.622,13.396,10.031C78.339,40.118,79.486,46.779,79.486,56.514z"/>
<path fill="#020202" fill-opacity="0.251" d="M78.386,33.476c0.123,0.608,0.191,2.011,0.218,4.209c0,0.127,0,0.255,0,0.384
	c0.686,0.9,1.545,2.167,2.578,3.802c0.308,1.187,0.492,2.554,0.557,4.106c0.029,0.54,0.041,1.899,0.041,4.083
	c0,1.012,0.197,2.737,0.599,5.178c0.401,2.426,0.6,4.139,0.6,5.137c0,4.277-0.166,7.412-0.499,9.404
	c-0.183,1.094-0.894,2.556-2.117,4.39c-1.998,2.995-3.023,4.533-3.073,4.611c-2.396,4.099-6.678,7.78-12.842,11.044
	c-4.856,2.58-9.261,4.204-13.217,4.877h-11.18c-1.876-0.5-3.367-0.979-4.472-1.436c-1.979-0.826-3.076-1.797-3.296-2.913
	c-0.437,0.036-0.875,0.074-1.318,0.102l0.102,0.607c-0.066,0.109-0.135,0.285-0.2,0.529c-0.119,0.183-0.386,0.28-0.798,0.28
	c-0.878,0-1.637-0.364-2.276-1.093c-0.48-0.552-0.72-0.963-0.72-1.233c0-0.041,1.131-0.262,3.395-0.666
	c3.075-0.554,5.775-1.093,8.105-1.622c8.386-1.913,14.236-4.162,17.551-6.755c2.755-2.166,4.823-3.93,6.208-5.277
	c2.171-2.143,3.829-4.297,4.971-6.454c1.333-2.523,2.916-5.36,4.753-8.516c1.449-2.479,2.398-4.193,2.835-5.136
	c0.664-1.457,1.111-2.986,1.337-4.591c0.239-1.565,0.36-3.83,0.36-6.796c0-0.321-0.122-1.642-0.36-3.964
	c-0.077-0.104-0.144-0.199-0.198-0.283c-0.428-0.633-0.636-1.274-0.636-1.921c0-0.919,0.147-1.469,0.448-1.649
	c-0.038-0.421-0.052-0.695-0.052-0.819c0-0.739,0.062-1.199,0.181-1.375C76.304,33.193,77.11,33.112,78.386,33.476z"/>
<path fill="#FFFFFF" fill-opacity="0.251" d="M13.497,49.132c0-3.561,1.605-7.261,4.812-11.105c2.928-3.519,6.45-6.337,10.562-8.456
	c4.206-2.17,7.728-2.917,10.563-2.244c3.209,0.755,4.812,3.257,4.812,7.504c0,1.092-3.588,4.705-10.761,10.841
	c-7.255,6.189-11.653,9.284-13.197,9.284c-2.049,0-3.78-0.877-5.189-2.63C14.029,51.006,13.497,49.94,13.497,49.132z"/>
<path fill="#020202" d="M185.945,155.474c0-9.781-1.154-16.471-3.451-20.073c-2.74-4.432-7.229-7.789-13.459-10.077
	c-5.615-2.248-12.62-3.626-21.021-4.126c-0.453-0.094-0.855-0.142-1.204-0.142l-0.139,0.142v0.123c-0.081,0-0.12,0.033-0.12,0.102
	c-0.079,0-0.122,0.046-0.122,0.143c-0.16,0.08-0.28,0.161-0.36,0.243l-0.141,0.143c-1.163,0.679-3.196,1.753-6.098,3.23
	c-1.605,0.769-3.472,1.624-5.598,2.56c-8.061,3.618-13.242,6.598-15.544,8.941c-0.415,1.775-1.57,5.636-3.468,11.58
	c-0.575,2.002-0.862,5.106-0.862,9.307c0,9.193,2.153,16.254,6.46,21.172c2.565,2.926,5.842,5.237,9.825,6.947
	c2.222,0.92,4.694,1.707,7.423,2.355c4.399,0.938,9.494,1.405,15.284,1.405c6.003,0,11.233-1.044,15.684-3.129
	c5.481-2.631,9.719-6.923,12.717-12.882C184.548,167.922,185.945,161.937,185.945,155.474z M186.464,182.071
	c-4.399,6.532-10.206,11.089-17.429,13.675c-4.708,1.68-9.935,2.521-15.684,2.521c-19.965,0-33.639-5.666-41.019-16.988
	c-4.157-6.322-6.236-14.777-6.236-25.358c0-15.43,4.572-27.268,13.72-35.517c8.143-7.382,18.251-10.735,30.324-10.059
	c6.889,0.419,13.188,2.013,18.895,4.774c4.146,1.949,7.964,4.566,11.453,7.843c9.132,8.63,13.699,19.465,13.699,32.508
	C194.188,165.539,191.615,174.402,186.464,182.071z"/>
<path fill="#EEE946" d="M185.945,155.474c0,6.463-1.397,12.448-4.193,17.964c-2.998,5.959-7.235,10.251-12.717,12.882
	c-4.45,2.088-9.681,3.129-15.684,3.129c-5.79,0-10.885-0.468-15.284-1.405c-2.729-0.648-5.201-1.432-7.423-2.355
	c-3.983-1.71-7.26-4.021-9.825-6.947c-4.307-4.918-6.46-11.979-6.46-21.172c0-4.204,0.288-7.305,0.863-9.311
	c1.899-5.944,3.055-9.805,3.471-11.58c2.299-2.342,7.479-5.323,15.543-8.939c2.126-0.934,3.992-1.789,5.597-2.56
	c2.899-1.477,4.933-2.554,6.097-3.23l0.142-0.142c0.082-0.081,0.2-0.162,0.36-0.246c0-0.093,0.041-0.141,0.12-0.141
	c0-0.068,0.041-0.104,0.12-0.104v-0.119l0.141-0.143c0.349,0,0.749,0.046,1.202,0.143c8.4,0.5,15.405,1.874,21.024,4.124
	c6.229,2.29,10.718,5.647,13.455,10.076C184.791,139.003,185.945,145.692,185.945,155.474z"/>
<path fill="#020202" fill-opacity="0.251" d="M184.84,132.33c0.123,0.611,0.192,2.02,0.22,4.228c0,0.127,0,0.258,0,0.389
	c0.687,0.902,1.552,2.177,2.589,3.818c0.31,1.191,0.495,2.565,0.561,4.124c0.027,0.543,0.041,1.906,0.041,4.101
	c0,1.017,0.195,2.751,0.601,5.203c0.402,2.438,0.602,4.159,0.602,5.162c0,4.296-0.165,7.445-0.502,9.447
	c-0.182,1.099-0.896,2.565-2.126,4.409c-2.005,3.009-3.035,4.554-3.087,4.633c-2.407,4.117-6.707,7.816-12.899,11.096
	c-4.88,2.59-9.303,4.221-13.276,4.897h-11.233c-1.884-0.505-3.383-0.982-4.491-1.442c-1.987-0.831-3.09-1.803-3.312-2.926
	c-0.439,0.037-0.879,0.072-1.323,0.103l0.102,0.608c-0.065,0.113-0.135,0.288-0.199,0.532c-0.12,0.186-0.389,0.281-0.804,0.281
	c-0.883,0-1.646-0.367-2.287-1.099c-0.481-0.553-0.722-0.965-0.722-1.24c0-0.037,1.135-0.261,3.41-0.666
	c3.088-0.557,5.801-1.099,8.143-1.628c8.424-1.923,14.3-4.183,17.631-6.789c2.769-2.174,4.846-3.946,6.237-5.299
	c2.181-2.153,3.846-4.317,4.993-6.484c1.339-2.534,2.929-5.385,4.773-8.555c1.456-2.489,2.411-4.213,2.851-5.161
	c0.666-1.463,1.116-2.998,1.343-4.612c0.24-1.573,0.36-3.847,0.36-6.827c0-0.323-0.12-1.648-0.36-3.98
	c-0.079-0.106-0.145-0.199-0.199-0.285c-0.43-0.635-0.639-1.28-0.639-1.93c0-0.924,0.147-1.477,0.449-1.657
	c-0.037-0.424-0.051-0.698-0.051-0.822c0-0.743,0.062-1.205,0.182-1.382C182.748,132.047,183.559,131.966,184.84,132.33z"/>
<path fill="#FFFFFF" fill-opacity="0.251" d="M119.655,148.059c0-3.578,1.61-7.294,4.832-11.157
	c2.942-3.534,6.479-6.363,10.611-8.493c4.224-2.181,7.761-2.931,10.61-2.253c3.223,0.758,4.833,3.271,4.833,7.538
	c0,1.096-3.604,4.726-10.811,10.89c-7.287,6.217-11.706,9.328-13.256,9.328c-2.061,0-3.799-0.883-5.214-2.645
	C120.188,149.94,119.655,148.869,119.655,148.059z"/>
<path fill="#020202" d="M180.351,56.229c1.587-4.677,4.174-15.069,7.771-31.177c1.836-8.252,3.24-14.206,4.202-17.864
	c-2.935,0.952-9.137,2.639-18.599,5.068c-18.301,4.679-28.27,7.238-29.914,7.689c-2.441,0.672-6.475,2.021-12.093,4.029
	c-3.194,1.147-8.219,2.965-15.082,5.453c-4.38,1.55-8.041,2.765-10.992,3.641c2.361,1.039,5.997,2.825,10.926,5.362
	c1.281,0.559,3.212,1.376,5.797,2.453c2.272,1.031,4.323,2.123,6.145,3.281c4.883,3.105,9.923,7.808,15.123,14.11
	c4.633,5.437,8.131,10.401,10.501,14.899c1.355,2.58,2.968,6.558,4.853,11.928c0.843,2.401,1.903,4.854,3.178,7.356
	c0.31,0.573,0.645,1.213,1.001,1.926c0.309-0.597,0.646-1.217,0.983-1.852c1.845-3.208,3.185-5.553,4.007-7.041
	c1.438-2.575,2.309-4.467,2.626-5.676c0.816-3.157,2.356-7.18,4.604-12.074C178,62.11,179.65,58.27,180.351,56.229z M179.748,76.87
	c-6.072,15.133-10.182,23.742-12.324,25.819c-0.915,0.883-1.849,1.467-2.789,1.74c-0.293,0.085-0.573,0.13-0.855,0.148
	c-0.67,0.56-1.71,1.01-3.111,1.357c-1.776,0.426-3.04,0.252-3.794-0.523c-0.61-0.631-1.405-2.563-2.395-5.805
	c-1.555-5.108-2.754-8.8-3.6-11.068c-4.338-11.623-10.625-21.689-18.86-30.193c-3.105-3.208-9.92-7.385-20.447-12.544
	c-9.952-4.585-15.062-7.023-15.334-7.305c-0.264-0.273-0.483-0.546-0.662-0.829c-0.211-0.121-0.399-0.267-0.563-0.438
	c-0.128-0.131-0.242-0.256-0.34-0.378c-0.121-0.102-0.232-0.212-0.341-0.324c-1.298-1.34-1.434-2.925-0.406-4.755
	c0.312-0.559,0.723-1.104,1.231-1.629l0.573-0.554c1.428-1.384,2.774-2.109,4.044-2.173c0.083-0.014,0.154-0.006,0.207,0.012
	c2.091-0.787,5.255-1.812,9.494-3.063c7.815-2.194,12.254-3.466,13.304-3.815c1.723-0.555,3.739-1.346,6.054-2.367
	c2.631-1.19,4.62-2.072,5.971-2.651c4.915-2.145,9.18-3.444,12.805-3.899c10.513-3.28,20.227-5.943,29.152-7.987
	c9.861-2.263,16.041-2.986,18.55-2.159c4.021-2.786,4.93,2.127,2.745,14.729c-1.748,10.138-4.882,22.611-9.399,37.421
	C188.475,54.158,185.51,61.901,179.748,76.87z"/>
<path fill="#6269B0" d="M180.351,56.229c-0.697,2.043-2.348,5.878-4.964,11.511c-2.248,4.895-3.788,8.917-4.604,12.074
	c-0.318,1.207-1.188,3.101-2.626,5.676c-0.822,1.488-2.162,3.833-4.007,7.041c-0.338,0.635-0.675,1.255-0.983,1.852
	c-0.356-0.712-0.691-1.353-1.001-1.926c-1.274-2.501-2.335-4.955-3.178-7.356c-1.885-5.37-3.498-9.346-4.853-11.928
	c-2.37-4.498-5.871-9.464-10.501-14.899c-5.2-6.303-10.24-11.005-15.123-14.11c-1.821-1.158-3.874-2.251-6.145-3.281
	c-2.585-1.077-4.516-1.894-5.797-2.453c-4.929-2.537-8.564-4.323-10.926-5.362c2.951-0.875,6.612-2.091,10.992-3.641
	c6.863-2.487,11.888-4.306,15.082-5.453c5.618-2.008,9.651-3.356,12.093-4.029c1.645-0.451,11.613-3.01,29.914-7.689
	c9.462-2.429,15.664-4.116,18.599-5.068c-0.965,3.655-2.366,9.612-4.202,17.864C184.524,41.16,181.938,51.552,180.351,56.229z"/>
<path fill="#FFFFFF" fill-opacity="0.251" d="M159.773,17.729c3.936-0.94,7.334-1.577,10.193-1.917
	c8.568-0.996,10.368,0.919,5.393,5.739c-0.276,0.268-3.539,1.229-9.777,2.896c-7.284,1.954-12.406,3.469-15.364,4.556
	c-1.281,0.473-5.295,2.247-12.038,5.311c-6.358,2.579-10.127,3.251-11.304,2.034c-1.289-1.33-1.526-2.772-0.711-4.325
	c0.294-0.575,0.91-1.316,1.836-2.212c0.996-0.965,5.238-2.875,12.726-5.732c3.694-1.413,7.874-2.935,12.543-4.572
	C154.552,19.062,156.723,18.465,159.773,17.729z"/>
<path fill="#020202" fill-opacity="0.251" d="M179.512,74.897c-0.614,1.775-1.489,4.386-2.625,7.829
	c-2.104,6.051-4.565,10.443-7.399,13.187c-1.271,1.232-2.332,1.942-3.173,2.12c-1.688,0.364-3.553-0.509-5.596-2.617
	c-1.288-1.332-2.106-3.036-2.455-5.117c-0.352-2.089-1.173-3.799-2.451-5.12c-1.906-1.967-0.506-7.886,4.2-17.747
	c2.851-6.017,6.881-13.353,12.091-22.014c1.079-1.792,2.477-4.747,4.188-8.856c0.207-0.491,1.782-4.4,4.729-11.721
	c4.101-10.187,7.096-16.194,8.992-18.03c1.176-1.14,2.343-1.725,3.501-1.756c1.1-0.028,1.952,0.427,2.549,1.373
	c0.621,0.981,0.815,2.274,0.588,3.878c-0.27,1.784-1.061,3.699-2.376,5.732c-0.865,1.748-1.904,4.187-3.115,7.323
	c-0.667,1.762-1.626,4.289-2.868,7.606c0.422,0.149,0.878,0.348,1.355,0.593c0.629,0.333,1.098,0.651,1.4,0.961
	c2.176,2.249,1.931,7.669-0.75,16.256c-1.924,6.173-4.399,12.201-7.427,18.096C181.739,69.098,180.621,71.77,179.512,74.897z"/>
<path fill="#020202" d="M142.716,89.254c0-7.746-0.914-13.044-2.733-15.898c-2.172-3.51-5.725-6.168-10.659-7.98
	c-4.449-1.78-9.997-2.87-16.649-3.267c-0.357-0.076-0.675-0.113-0.952-0.113l-0.111,0.113v0.096c-0.063,0-0.096,0.026-0.096,0.081
	c-0.063,0-0.095,0.037-0.095,0.112c-0.126,0.065-0.22,0.129-0.285,0.194l-0.113,0.113c-0.919,0.536-2.53,1.387-4.825,2.557
	c-1.276,0.611-2.751,1.287-4.435,2.027c-6.385,2.865-10.488,5.225-12.31,7.082c-0.329,1.405-1.244,4.463-2.749,9.172
	c-0.455,1.585-0.682,4.044-0.682,7.368c0,7.281,1.706,12.873,5.115,16.767c2.033,2.318,4.628,4.148,7.782,5.502
	c1.761,0.732,3.716,1.354,5.878,1.867c3.483,0.74,7.52,1.113,12.104,1.113c4.754,0,8.896-0.828,12.422-2.479
	c4.34-2.084,7.697-5.484,10.071-10.203C141.608,99.112,142.716,94.371,142.716,89.254z M143.126,110.318
	c-3.484,5.172-8.084,8.779-13.803,10.828c-3.729,1.33-7.87,1.996-12.422,1.996c-15.812,0-26.639-4.486-32.484-13.455
	c-3.292-5.008-4.94-11.702-4.94-20.08c0-12.219,3.622-21.595,10.867-28.128c6.449-5.846,14.453-8.502,24.015-7.966
	c5.454,0.332,10.444,1.593,14.965,3.781c3.281,1.544,6.308,3.616,9.069,6.211c7.233,6.834,10.85,15.417,10.85,25.747
	C149.242,97.224,147.206,104.242,143.126,110.318z"/>
<path fill="#EC2727" d="M142.716,89.254c0,5.117-1.107,9.858-3.321,14.225c-2.374,4.719-5.731,8.119-10.071,10.203
	c-3.525,1.652-7.668,2.479-12.422,2.479c-4.585,0-8.621-0.373-12.104-1.113c-2.16-0.514-4.118-1.135-5.878-1.867
	c-3.154-1.354-5.749-3.184-7.782-5.502c-3.41-3.895-5.115-9.485-5.115-16.767c0-3.326,0.227-5.783,0.685-7.371
	c1.504-4.709,2.418-7.767,2.747-9.171c1.821-1.855,5.925-4.215,12.309-7.081c1.686-0.741,3.163-1.416,4.435-2.028
	c2.297-1.169,3.906-2.023,4.829-2.558l0.11-0.113c0.065-0.064,0.158-0.128,0.286-0.194c0-0.075,0.03-0.111,0.097-0.111
	c0-0.056,0.031-0.082,0.093-0.082v-0.096l0.113-0.112c0.274,0,0.593,0.038,0.95,0.112c6.652,0.396,12.199,1.486,16.65,3.268
	c4.933,1.813,8.487,4.472,10.658,7.98C141.802,76.209,142.716,81.508,142.716,89.254z"/>
<path fill="#020202" fill-opacity="0.251" d="M141.839,70.925c0.098,0.484,0.152,1.6,0.176,3.348c0,0.102,0,0.203,0,0.307
	c0.544,0.716,1.228,1.724,2.049,3.025c0.245,0.944,0.393,2.031,0.443,3.266c0.023,0.429,0.033,1.512,0.033,3.25
	c0,0.805,0.156,2.177,0.477,4.12c0.318,1.93,0.478,3.292,0.478,4.087c0,3.401-0.132,5.896-0.398,7.482
	c-0.146,0.87-0.711,2.031-1.684,3.491c-1.59,2.382-2.406,3.606-2.443,3.669c-1.908,3.262-5.315,6.189-10.219,8.787
	c-3.862,2.051-7.368,3.342-10.514,3.877h-8.896c-1.493-0.396-2.678-0.775-3.558-1.141c-1.573-0.656-2.448-1.428-2.621-2.316
	c-0.349,0.029-0.696,0.059-1.05,0.08l0.082,0.484c-0.055,0.086-0.107,0.227-0.158,0.42c-0.096,0.146-0.309,0.223-0.637,0.223
	c-0.697,0-1.303-0.289-1.811-0.869c-0.381-0.439-0.572-0.766-0.572-0.982c0-0.031,0.898-0.207,2.699-0.527
	c2.446-0.443,4.597-0.869,6.449-1.291c6.672-1.521,11.327-3.313,13.964-5.375c2.192-1.723,3.837-3.127,4.938-4.197
	c1.728-1.706,3.046-3.42,3.955-5.135c1.062-2.007,2.319-4.265,3.783-6.775c1.15-1.973,1.906-3.336,2.255-4.086
	c0.528-1.158,0.883-2.376,1.063-3.653c0.19-1.245,0.286-3.047,0.286-5.407c0-0.254-0.096-1.306-0.286-3.153
	c-0.062-0.083-0.115-0.159-0.157-0.225c-0.342-0.504-0.506-1.014-0.506-1.529c0-0.731,0.116-1.168,0.354-1.312
	c-0.028-0.335-0.041-0.553-0.041-0.651c0-0.589,0.05-0.954,0.146-1.095C140.184,70.7,140.825,70.635,141.839,70.925z"/>
<path fill="#FFFFFF" fill-opacity="0.251" d="M90.214,83.38c0-2.833,1.277-5.776,3.828-8.834c2.33-2.8,5.133-5.042,8.403-6.728
	c3.347-1.727,6.147-2.321,8.402-1.785c2.554,0.601,3.83,2.591,3.83,5.969c0,0.87-2.855,3.743-8.563,8.626
	c-5.771,4.923-9.27,7.386-10.498,7.386c-1.631,0-3.008-0.698-4.129-2.092C90.638,84.872,90.214,84.023,90.214,83.38z"/>
<g>
	<path d="M2.461,243.086l-0.316,0.141l-0.352-0.141v-0.352l0.211-0.141l0.387,0.07l0.07,0.211V243.086z M35.121,249.309
		l-0.281,0.352l-0.563,0.211l-0.211-0.351l-0.387-0.526l-0.492-0.983l-0.703-0.946l-1.019-1.79l-0.737-1.72l-0.281-1.228
		l-0.492-0.667l-0.878-2.491l-0.703-0.878l-0.562-1.298l-0.808-1.298l-0.632-0.562l-1.511-1.649l-0.316-0.947l-1.196-0.843
		l-1.513-0.28l-1.618,0.21l-1.654,0.279l-1.196,0.489l-1.301,1.152l-1.231,0.63l-0.282,0.594l-0.95,0.698l-2.005,1.153l-0.387,0.419
		l-0.282,1.582v1.02l-0.494,0.563v1.23l-0.211,1.301l0.211,2.109l-0.211,1.441l-0.422,1.512l-0.668,1.195l-0.773,0.949l-1.301,1.16
		l-1.23,0.211l-1.16,0.141l-0.352-0.281H3.656l-0.492-0.598l-0.352-0.281v-0.703l-0.352-0.527v-1.441l0.352-0.914l-0.07-0.809
		l0.211-0.492l0.422-0.211v-0.668l0.668-0.352l0.281-0.633l0.422-0.879l0.598-0.281l0.563-1.301l0.211-1.441l0.352-0.211
		l-0.141-0.949l0.281-1.441v-0.914l-0.633-1.371l-0.422-1.23l-0.141-1.371l-0.07-0.949l0.211-0.281l-0.141-0.492v-0.281l1.055-1.301
		v-0.422l0.598-0.668l0.773-1.23l0.949-1.371L9,224.172l0.07-0.738L9,222.871l0.352-1.793l0.281-1.723l0.598-2.18l0.141-1.23
		l0.281-0.563l-0.07-1.863l-0.141-1.652l0.141-1.582l0.563-1.301l0.527-1.02l0.633-0.492l0.211-0.949l0.457-0.633l0.211-0.598
		l-0.211-0.422l0.141-0.949l-0.527-1.125l0.141-1.16l-0.422-0.527l0.211-0.914h0.457l0.773-0.598l0.422-0.07l0.316-0.563
		l1.125-0.141l0.949,0.422l0.809,1.23l0.352,0.211l0.563,1.09l0.668,1.301l0.281,1.23l0.633,1.406l0.809,1.09l0.07,0.598
		l0.563,0.633l0.352,0.738l0.668,0.914l-0.07,0.879l0.633,1.301l0.07,0.563l0.387,0.703l0.352,1.23l0.563,1.02l0.211,1.723
		l0.316,1.23l0.422,1.723v0.633l0.352,0.949l0.492,1.652l0.457,1.512l0.141,1.23L27,226.914l0.949,0.633l1.125,0.352l1.371-0.07
		h1.301l1.301,0.281l0.211,0.387l0.281,0.352l-0.281,0.211l-0.211,0.352l-0.563,0.598l-0.738,0.07l-0.281,0.352l-1.09,0.211
		l-1.23,0.563l-0.492,0.457v0.844l0.211,1.02l0.457,1.02l0.563,0.984l0.492,1.441l0.352,0.879l0.457,1.371l0.492,1.23l0.738,1.512
		l0.492,1.266l0.281,1.969l0.352,0.211l0.457,1.02l0.492,0.984v0.598l0.352,0.352L35.121,249.309z M3.727,252.473l-0.07,0.281
		l-0.492-0.07l-0.211-0.527l0.352-0.07h0.422V252.473z M6.926,225.402l-0.07,0.352l-0.316,0.211l-0.422-0.281v-0.352l0.352-0.387
		l0.387-0.141l0.07,0.211V225.402z M21.984,226.527l-0.316-0.773l-0.703-1.301l-0.141-1.23l-0.351-0.563l-0.246-0.738l-0.421-0.703
		l0.07-1.863l-0.913-1.23l0.281-0.527l-0.351-0.844l-0.456-2.531l-0.562-1.16l-0.07-0.914l-0.808-1.02l-0.281-0.563l-0.703-1.512
		l-1.446,1.441l0.141,0.914l-0.529,0.809v0.844l-0.142,0.457l-0.282,1.441l-0.141,1.266v0.387l-0.353,0.492v1.02l-0.141,2.004v0.949
		l-0.388,0.844l0.247,0.879l-0.388,1.09l0.598,0.844l1.653,0.738l1.724,0.633l1.442,0.809l0.809,0.563l1.407,0.281l0.95-0.211
		l0.281-0.211L21.984,226.527z M18.563,226.668l-0.422,0.105l-0.352-0.246l0.07-0.281h0.352l0.211-0.141l0.141,0.211V226.668z
		 M34.559,228.566l-0.07,0.281l-0.281,0.141h-0.211v-0.211l0.07-0.281l0.141-0.07L34.559,228.566z M35.191,251.875
		c-0.023,0.047-0.141,0.094-0.352,0.141l-0.211-0.07l-0.07-0.211l0.211-0.211l0.352,0.07L35.191,251.875z"/>
	<path d="M57.727,244.387l-0.281,0.387l-0.352,0.281l-0.738-0.07l-0.633-0.598l-0.211-0.633l-0.07-0.949v-0.773l-0.281-1.02
		l-0.07-1.02v-0.914l-0.316-0.949l-0.07-1.09l-0.563-1.723L54,232.715l-0.596-1.793l-0.84-0.773l-1.016-0.457l-0.421-0.563
		l-0.735-0.352l-1.121,0.352l-0.807,0.281l-0.7,0.809l-0.736,0.844l-0.911,1.301l-0.386,0.879l-0.21,0.773l-0.14,0.738l-0.561,0.773
		l-0.666,0.809l-0.281,1.16l-0.07,1.301v1.266l-0.14,1.582l-0.07,1.441v1.301l0.07,1.23l0.281,1.09l0.211,0.914l0.07,0.879
		l-0.354,0.422l-0.284,0.387l-0.673,0.141h-0.639l-0.425-0.316l-0.354-0.422l-0.39-1.23l-0.212-0.984l-0.283-2.039v-0.773
		l-0.142-0.879l-0.142-1.16v-1.336l-0.142-1.23v-0.949l-0.071-0.949l-0.249-1.055v-1.301l-0.071-1.16v-4.465l-0.281-0.844
		l-0.422-0.668l-0.281-0.563l-0.281-0.738l-0.105-0.844l0.105-0.668l0.352-0.633l0.422-0.422l0.809-0.598l0.984-0.07l1.02,0.07
		l0.773,0.492l0.738,0.527l0.773,0.773l0.387,0.527l0.281,0.844l0.773,0.387l0.738-0.246l1.02-0.141l0.984-0.281l0.949-0.281
		l1.23-0.141l0.984-0.141l1.02,0.352l0.492,0.563l0.457,1.02l0.352,0.703l0.141,1.02l0.352,0.668l0.527,0.844l0.352,1.16l0.07,1.02
		l0.07,1.125l0.211,1.09l0.07,1.09l0.281,0.984l0.07,0.949v1.02l0.141,0.984l0.387,1.02l0.141,1.02l0.563,0.773l0.281,0.809V244.387
		z M54.492,245.406l-0.281,0.422l-0.352,0.141l-0.281-0.563l0.563-0.563L54.492,245.406z"/>
	<path d="M84.445,205.645l-0.387,1.898l-0.422,2.637l-0.703,1.828l-0.457,1.793l-0.492,1.934l-0.422,2.32v2.074l-0.141,2.004
		l0.07,1.23l-0.141,1.969l-0.141,2.355l-0.387,1.652l0.281,3.902l-0.141,1.652l-0.07,1.793l-0.211,2.109l-0.211,1.512l-0.141,1.336
		l-0.141,2.32l0.281,2.074l0.352,4.184l0.281,1.02l0.387,0.352l-0.211,0.879l-0.593,0.422l-0.612-0.492l-0.203-0.949l-0.068-1.09
		l-0.388-0.773l-0.353-2.391l-0.281-1.301l-0.563-1.125l-0.528,0.773l-0.564,0.563l-1.232,0.316l-0.952,0.141l-2.008,0.703h-1.374
		l-1.938-0.563l-1.375-0.141l-0.493-0.949l-1.092-0.563l-0.669-0.527l-0.493-1.195l-0.881-0.949l-0.493-1.23l-0.634-1.09l0.07-1.441
		l-0.352-2.004l0.422-2.145l0.492-1.09l0.668-1.934l1.371-1.301l1.582-0.457l0.984-0.563l2.18-0.773l1.441,0.281l0.984-0.07
		l1.09,0.633l1.652,0.281l1.441,0.809l-0.141-2.109l0.141-2.074l0.07-1.723l-0.141-3.586l-0.211-1.688v-2.145l0.352-2.32v-1.512
		l-0.211-1.863l-0.281-1.793l-0.949-2.391l-0.141-1.371v-0.773l0.07-1.02l0.352-0.984l0.668-0.598l1.723,0.07l1.512,0.879
		l1.582-0.492l1.934,0.984L84.445,205.645z M70.313,223.293l-0.352,1.863l-0.633,0.457v0.563l0.211,1.02l-0.949,0.422h-0.773
		l-1.02-0.703l-0.141-1.23v-0.738l0.281-2.215l0.492-0.949l1.301-0.07l1.09,0.598L70.313,223.293z M77.59,239.148v-2.953
		l-0.141-1.441l-0.492-0.949l-0.07-1.441l-0.457-1.16l-1.055-0.141h-1.512l-1.758,0.598l-1.793,1.371l-1.055,1.195l-0.738,1.16
		l-0.352,1.23l-0.809,1.23l-0.141,1.16l0.211,1.125l0.387,0.809l0.563,0.633l1.723,1.758l2.531,0.703l1.652-0.07h1.02l1.055-0.07
		l0.879,0.141l-0.211-1.23l0.422-0.211v-2.074L77.59,239.148z"/>
	<path d="M103.008,229.059l-0.492,0.141l-0.668-0.07h-0.633l-0.949,0.141l-1.16,0.668l-0.563,0.773l-1.16,0.492l-0.492,0.598
		l-0.949,0.844l-0.422,0.879l-0.281,0.809v1.055l-0.281,0.809l-0.316,0.844l-0.281,0.949l-0.07,1.02v2.285l-0.07,1.02l-0.281,1.02
		l-0.07,0.984l-0.141,1.09v1.02l-0.527,1.055l-0.633,0.598l-0.949,0.281l-0.633,0.141l-0.563-0.141l-0.527-0.563l-0.281-0.668
		l-0.281-0.703l0.07-0.809l-0.07-1.16v-1.652l-0.07-0.773l0.07-0.879l0.07-1.16v-0.984l0.141-1.16l0.07-1.16l-0.07-1.301v-1.055
		l-0.141-0.879l-0.07-0.809l-0.598-0.984l-0.492-0.809l-0.281-0.844l-0.07-0.949l0.141-0.879l0.352-0.633l0.598-0.422l0.984-0.352
		l1.09-0.527l0.949,0.141l1.195,0.527l0.141,0.703l0.527,0.949v1.441l0.422,0.422l0.422,0.07l0.598-0.141l0.703-0.563l0.949-0.598
		l1.09-0.492l0.914-0.527l1.09-0.141l1.16-0.281h0.633l0.879,0.281l0.281,0.527V229.059z"/>
	<path d="M123.539,237.707l-0.141,1.23l-0.246,1.125l-0.492,0.879l-0.352,0.949l-0.598,0.984l-0.844,0.598l-0.563,0.844l-1.16,0.598
		l-1.16,0.422l-1.371,0.141l-1.371,0.211l-1.301,0.141l-1.371-0.281l-1.125-0.211l-1.09-0.422l-0.879-0.387l-0.914-0.844
		l-0.809-0.949l-0.844-0.492l-0.598-0.949l-0.422-0.984l-0.492-0.949l-0.07-1.09l-0.105-1.371l0.176-0.984l0.352-1.371v-1.371
		l0.422-1.371l0.738-2.18l0.773-0.703l0.141-0.809l0.738-0.563l0.914-0.633l0.879-0.527l1.301-0.281l0.844,0.141l0.738,0.422
		l0.422,0.809l0.141,0.703l-0.07,0.949l-0.563,0.738l-0.668,0.844l-0.422,0.949l-0.07,0.914l-0.703,0.668l-0.387,1.301l-0.352,0.844
		l-0.07,1.301v1.09l0.211,1.16l0.492,0.914l0.598,0.738l0.773,0.563l0.738,0.738l0.914,0.281l1.16,0.07l0.141,0.211l1.301-0.07
		l1.16-0.211l1.301-0.879l0.773-0.773l0.598-1.16l0.211-1.09v-1.441l-0.352-0.844l-0.598-1.09l-0.633-0.879l-0.809-0.773
		l-0.844-0.668l-0.668-0.492l-0.492-0.422l-0.141-0.738l0.281-0.492h0.668l0.633,0.422l0.879,0.352l0.563,0.457l1.16,0.773
		l0.773,0.598l0.527,0.773l0.633,0.949l0.563,0.844l0.316,0.809L123.539,237.707z M116.332,229.867l-0.422,0.141l-0.457-0.387
		l0.281-0.281l0.457,0.07L116.332,229.867z"/>
	<path d="M152.895,211.867l-0.141,1.441l-0.211,1.793l-0.352,1.371l-0.457,0.984l-0.281,1.02l-0.563,1.16l-0.949,0.633l-0.492,1.02
		l-1.02,1.02l-1.02,0.422l-0.844,0.563l-3.621,0.422l-1.723-0.422h-1.055l-1.371-0.633l-0.211-0.352v-0.949l0.281-0.211h0.914
		l1.02,0.352l1.09,0.281l2.004,0.141l1.723-0.141l1.16-0.281l0.703-1.02l0.457-1.055l0.984-1.371l0.246-1.02l0.633-0.949
		l0.281-1.582l0.141-2.707l-0.352-1.371v-1.441l-0.563-1.23l-1.09-2.109l-0.281-0.844l-0.668-0.352l-0.492-1.23l-1.512-0.738
		l-1.16-0.422l-1.863-0.211l-2.004-0.07l-1.969,0.07l-0.492,0.492l0.352,1.09l-0.492,1.582l-0.492,1.652l-0.527,1.863l-0.422,1.898
		l-0.211,1.055l-0.07,1.582l-0.281,1.441l-0.176,1.898l-0.352,1.441v1.582l-0.422,1.723l-0.211,1.301l-0.211,1.512l-0.598,1.652
		l-0.211,1.582l-0.492,1.863l-0.281,1.863l-0.457,1.969l-0.563,2.004l-1.723,3.445l-0.07,1.23l-0.527,1.09l-0.422,1.23l0.07,1.582
		l-0.141,1.055l-0.492,1.301l0.281,1.793l0.633,0.879l0.211,0.949l-0.211,0.352l-0.633,0.07h-0.352l-0.316-0.422l-0.492-1.23
		l-0.141-1.652l0.211-2.109l0.281-1.863l0.141-1.934v-1.441l0.527-0.352l0.352-0.879l0.07-1.723l-0.281-1.723l0.633-1.16
		l0.668-3.023l0.281-1.793l0.352-1.512l-0.352-1.441l0.141-1.301l0.422-2.391l0.141-2.426l0.387-2.109l-0.07-1.934l0.422-1.652
		l0.563-2.461v-1.863l0.387-2.672l-0.387-1.652l-0.211-1.723l-0.211-1.09l0.352-1.652l0.809-0.773l1.512-0.387l1.371,0.527h0.984
		l1.758-0.879l1.723-0.281l1.652,0.211l1.512-0.422l1.723,0.352l1.934,0.738l1.441,0.984l1.301,1.371l1.09,2.074l0.492,0.668
		l0.141,1.16l0.598,0.984l0.352,1.371l0.211,1.301l-0.141,1.16L152.895,211.867z M130.359,212.078l-0.141,0.422l-0.633,0.352
		l-0.598-0.703l0.598-0.352L130.359,212.078z"/>
	<path d="M173.777,245.477l-0.07,0.492l-0.492,0.527h-0.527l-0.563-0.598l-0.281-0.914l-0.457-0.738l-0.281-1.02l-0.281-0.281
		l-0.422,0.211l-0.598,0.387l-0.633,0.773l-1.02,0.598l-0.633,0.633l-1.09,0.563l-1.23,0.457l-1.055,0.352l-0.949,0.281
		l-0.703,0.281l-0.738-0.211l-1.02-0.141l-1.195-0.492l-1.09-0.668l-0.668-0.844l-0.492-0.949l-0.07-1.512v-1.02l0.211-1.125
		l0.668-1.16l0.633-1.09l0.879-0.773l0.914-0.668l1.23-0.211l1.09-0.141l1.23-0.281l1.055-0.668l1.371-0.703l0.668-0.281
		l0.703-0.211l0.281-0.738l-0.563-1.02l-0.668-0.914l-1.406-1.301l-1.441-0.422l-1.16-0.07l-0.422,0.07h-0.738l-0.879,0.422
		l-0.773,0.492l-0.949,0.141h-1.055l-1.23,0.316h-1.09l-0.879-0.457l-0.633-0.633l-0.07-0.879l0.211-0.773l0.738-0.879l0.773-1.02
		l0.949-0.773l1.055-0.563l1.16-0.949l1.09-0.492l2.004-0.387l1.723-0.141l1.23,0.352l1.02,0.527l1.09,0.352l1.23,0.809l0.633,0.633
		l0.633,1.02l0.457,1.301l0.352,1.266l0.492,1.688l0.457,1.266l0.07,1.09l-0.07,1.371l0.352,1.582l0.211,1.652l0.633,2.883
		l0.387,1.09l0.352,0.984l0.281,1.23L173.777,245.477z M168.891,237.988l-0.281-0.422l-1.02-0.281l-0.879,0.07l-0.773,0.352
		l-0.879,0.281l-0.914,0.492l-0.879,0.141l-0.773,0.387l-0.668,0.492l-0.422,0.633l-0.527,0.809l-0.141,0.703l-0.281,0.668v0.844
		l0.352,0.738l0.949,0.281h1.02l1.125-0.281l0.527-0.563l0.703-0.176l1.652-1.125l0.809-0.527l0.563-0.914l0.598-0.738l0.07-0.984
		L168.891,237.988z M170.754,245.266l-0.281,0.211l-0.598-0.211l0.176-0.422l0.422-0.246L170.754,245.266z M173.566,239.219
		l-0.422,0.281l-0.387-0.141v-0.422l0.668-0.316L173.566,239.219z"/>
	<path d="M199.582,205.645l-0.387,1.898l-0.422,2.637l-0.703,1.828l-0.457,1.793l-0.492,1.934l-0.422,2.32v2.074l-0.141,2.004
		l0.07,1.23l-0.141,1.969l-0.141,2.355l-0.387,1.652l0.281,3.902l-0.141,1.652l-0.07,1.793l-0.211,2.109l-0.211,1.512l-0.141,1.336
		l-0.141,2.32l0.281,2.074l0.352,4.184l0.281,1.02l0.387,0.352l-0.211,0.879l-0.593,0.422l-0.612-0.492l-0.203-0.949l-0.068-1.09
		l-0.388-0.773l-0.353-2.391l-0.281-1.301l-0.563-1.125l-0.528,0.773l-0.564,0.563l-1.232,0.316l-0.952,0.141l-2.008,0.703h-1.374
		l-1.938-0.563l-1.375-0.141l-0.492-0.949l-1.093-0.563l-0.669-0.527l-0.494-1.195l-0.881-0.949l-0.493-1.23l-0.634-1.09l0.07-1.441
		l-0.352-2.004l0.422-2.145l0.492-1.09l0.668-1.934l1.371-1.301l1.582-0.457l0.984-0.563l2.18-0.773l1.441,0.281l0.984-0.07
		l1.09,0.633l1.652,0.281l1.441,0.809l-0.141-2.109l0.141-2.074l0.07-1.723l-0.141-3.586l-0.211-1.688v-2.145l0.352-2.32v-1.512
		l-0.211-1.863l-0.281-1.793l-0.949-2.391l-0.141-1.371v-0.773l0.07-1.02l0.352-0.984l0.668-0.598l1.723,0.07l1.512,0.879
		l1.582-0.492l1.934,0.984L199.582,205.645z M185.449,223.293l-0.352,1.863l-0.633,0.457v0.563l0.211,1.02l-0.949,0.422h-0.773
		l-1.02-0.703l-0.141-1.23v-0.738l0.281-2.215l0.492-0.949l1.301-0.07l1.09,0.598L185.449,223.293z M192.727,239.148v-2.953
		l-0.141-1.441l-0.492-0.949l-0.07-1.441l-0.457-1.16l-1.055-0.141H189l-1.758,0.598l-1.793,1.371l-1.055,1.195l-0.738,1.16
		l-0.352,1.23l-0.809,1.23l-0.141,1.16l0.211,1.125l0.387,0.809l0.563,0.633l1.723,1.758l2.531,0.703l1.652-0.07h1.02l1.055-0.07
		l0.879,0.141l-0.211-1.23l0.422-0.211v-2.074L192.727,239.148z"/>
</g>
</svg>
